<svg version="1.1" id="Layer_1" xmlns="http://www.w3.org/2000/svg" xmlns:xlink="http://www.w3.org/1999/xlink" x="0px" y="0px"
	 viewBox="0 0 200 191.4" style="enable-background:new 0 0 200 191.4;" xml:space="preserve">
<path d="M200,76.6c0.1-3-0.7-5.7-2.6-8.2c-1.9-2.5-4.4-4-7.7-4.5l-54.6-7.8L110.8,6.7c-1.5-3-3.7-5-6.5-6s-5.7-1-8.6,0
	c-2.9,1-5,3-6.5,6L64.9,56.1l-54.6,7.8c-3.2,0.5-5.8,2-7.7,4.5c-1.9,2.5-2.7,5.2-2.6,8.2c0.1,3,1.3,5.6,3.6,7.8L43.2,123l-9.3,54.6
	c-0.5,3,0.1,5.8,1.7,8.4s3.9,4.3,6.9,5s5.9,0.4,8.6-1.1l49-25.4l49,25.4c2.7,1.5,5.6,1.9,8.6,1.1c3-0.7,5.3-2.4,6.9-5
	s2.2-5.4,1.7-8.4l-9.3-54.6l39.6-38.5C198.7,82.2,199.9,79.6,200,76.6z M128.9,133.5c-2.8,3.6-6.7,6.4-11.7,8.3
	c-5,1.9-10.7,2.9-17.1,2.9c-7,0-13-1-17.9-3c-4.9-2-8.6-4.7-11.2-8c-2.5-3.3-3.9-6.9-4-10.9c0-0.7,0.2-1.2,0.7-1.6
	c0.5-0.4,1-0.7,1.7-0.7h14.4c0.9,0,1.6,0.1,2.1,0.4c0.5,0.3,1.1,0.8,1.8,1.5c0.9,1.7,2.4,3.2,4.4,4.3c2,1.1,4.6,1.7,8,1.7
	c3.9,0,6.9-0.6,9-1.8c2.1-1.2,3.1-2.8,3.1-4.9c0-1.5-0.5-2.8-1.6-3.7c-1.1-1-2.8-1.8-5.2-2.6c-2.4-0.8-5.8-1.6-10.3-2.6
	c-8.8-1.7-15.3-4.4-19.6-7.9c-4.3-3.5-6.5-8.6-6.5-15.2c0-4.5,1.2-8.5,3.7-12c2.5-3.5,6-6.2,10.6-8.2c4.6-2,9.9-2.9,16-2.9
	c6.4,0,11.9,1.1,16.6,3.3c4.7,2.2,8.2,5,10.7,8.2c2.5,3.3,3.8,6.5,4,9.7c0,0.7-0.2,1.2-0.7,1.7c-0.4,0.5-1,0.7-1.6,0.7H113
	c-1.6,0-2.8-0.7-3.7-2c-0.4-1.5-1.6-2.8-3.4-3.9c-1.8-1-4.1-1.6-6.7-1.6c-3,0-5.4,0.5-7.1,1.6c-1.7,1.1-2.5,2.7-2.5,4.8
	c0,2.1,1.1,3.7,3.3,4.9c2.2,1.2,6.2,2.4,12.2,3.6c6.8,1.2,12.2,2.8,16.2,4.6c4,1.8,7,4.2,8.9,7.2c1.9,2.9,2.9,6.6,2.9,11.1
	C133.1,125.6,131.7,129.9,128.9,133.5z"/>
</svg>
